<?xml version="1.0" encoding="UTF-8"?>
<svg width="13px" height="22px" viewBox="0 0 13 22" version="1.1" xmlns="http://www.w3.org/2000/svg" xmlns:xlink="http://www.w3.org/1999/xlink">
    <!-- Generator: Sketch 43.2 (39069) - http://www.bohemiancoding.com/sketch -->
    <title>facebook</title>
    <desc>Created with Sketch.</desc>
    <defs></defs>
    <g id="Page-1" stroke="none" stroke-width="1" fill="none" fill-rule="evenodd">
        <path d="M8.1511911,6.66563013 L10.81392,6.66563013 L10.81392,10.7538603 L8.1511911,10.7538603 L8.1511911,21.2030538 L2.58366714,21.2030538 L2.58366714,10.7538603 L0.512655809,10.7538603 L0.512655809,6.66563013 L2.58366714,6.66563013 L2.58366714,6.00667198 C2.58366714,5.41495446 2.65090777,4.76944443 2.7719409,4.05669378 C2.89297403,3.34394313 3.13504028,2.76567373 3.48469155,2.30843746 C3.83434281,1.86464932 4.33192346,1.50154993 4.96398535,1.2191393 C5.59604725,0.936728661 6.52396791,0.802247406 7.74774734,0.802247406 C8.7294605,0.802247406 10.1415137,0.90983241 11.997355,1.13845054 L11.3921893,4.4870338 C10.7197831,4.37944879 10.1818581,4.32565629 9.77841429,4.32565629 C9.28083364,4.32565629 8.91773426,4.40634504 8.68911612,4.58117068 C8.47394611,4.74254818 8.31256861,5.01151069 8.23187985,5.38805821 C8.19153548,5.58978009 8.16463923,6.00667198 8.16463923,6.652182 L8.1511911,6.66563013 Z" id="facebook" stroke="#2B2A29"></path>
    </g>
</svg>