<?xml version="1.0" encoding="UTF-8"?>
<svg width="20px" height="21px" viewBox="0 0 20 21" version="1.1" xmlns="http://www.w3.org/2000/svg" xmlns:xlink="http://www.w3.org/1999/xlink">
    <!-- Generator: Sketch 43.2 (39069) - http://www.bohemiancoding.com/sketch -->
    <title>instagram</title>
    <desc>Created with Sketch.</desc>
    <defs></defs>
    <g id="Page-1" stroke="none" stroke-width="1" fill="none" fill-rule="evenodd">
        <g id="Artboard" transform="translate(-933.000000, -915.000000)" stroke="#2B2A29">
            <g id="instagram" transform="translate(933.656504, 915.518851)">
                <path d="M4.51585182,0 L13.8926206,0 C16.3830903,0 18.4084724,2.04038488 18.4084724,4.51585182 L18.4084724,15.2278724 C18.4084724,17.7183422 16.3680875,19.7437242 13.8926206,19.7437242 L4.51585182,19.7437242 C2.02538205,19.7437242 0,17.7033394 0,15.2278724 L0,4.51585182 C0,2.02538205 2.04038488,0 4.51585182,0 Z" id="Shape"></path>
                <path d="M9.2117376,4.0057556 C12.4073404,4.0057556 14.9878271,6.58624236 14.9878271,9.78184514 C14.9878271,12.9774479 12.4073404,15.5579347 9.2117376,15.5579347 C6.01613482,15.5579347 3.43564806,12.9774479 3.43564806,9.78184514 C3.43564806,6.58624236 6.01613482,4.0057556 9.2117376,4.0057556 Z" id="Shape"></path>
                <path d="M14.4027168,16.233062 C14.7777875,16.233062 15.0778441,16.5331186 15.0778441,16.9081894 C15.0778441,17.2832601 14.7777875,17.5833167 14.4027168,17.5833167 C14.027646,17.5833167 13.7275894,17.2832601 13.7275894,16.9081894 C13.7275894,16.5331186 14.027646,16.233062 14.4027168,16.233062 Z" id="Shape"></path>
            </g>
        </g>
    </g>
</svg>