<?xml version="1.0" encoding="UTF-8"?>
<svg width="151px" height="130px" viewBox="0 0 151 130" version="1.1" xmlns="http://www.w3.org/2000/svg" xmlns:xlink="http://www.w3.org/1999/xlink">
    <!-- Generator: Sketch 43.2 (39069) - http://www.bohemiancoding.com/sketch -->
    <title>portfolio-logo</title>
    <desc>Created with Sketch.</desc>
    <defs></defs>
    <g id="Page-1" stroke="none" stroke-width="1" fill="none" fill-rule="evenodd">
        <g id="portfolio-logo" fill="#221F20">
            <path d="M16.882,116.268 L135.454,116.268 L135.454,14 L16.882,14 L16.882,116.268 Z M22.933,109.863 L129.847,109.863 L129.847,20.11 L22.933,20.11 L22.933,109.863 Z" id="frame"></path>
            <g id="logo" transform="translate(35.000000, 25.742000)">
                <path d="M49.7657,66.195 C49.7657,69.872 48.7107,72.765 46.6027,74.873 C44.4947,76.981 41.6017,78.036 37.9247,78.036 C34.2477,78.036 31.3597,76.981 29.2617,74.873 C27.1627,72.765 26.1157,69.872 26.1157,66.195 C26.1157,62.518 27.1627,59.626 29.2617,57.516 C31.3597,55.408 34.2477,54.355 37.9247,54.355 C41.6017,54.355 44.4947,55.408 46.6027,57.516 C48.7107,59.626 49.7657,62.518 49.7657,66.195 Z M37.9247,75.855 C40.8957,75.855 43.2277,74.998 44.9197,73.284 C46.6127,71.57 47.4587,69.207 47.4587,66.195 C47.4587,63.183 46.6127,60.82 44.9197,59.106 C43.2277,57.392 40.8957,56.535 37.9247,56.535 C34.9537,56.535 32.6217,57.392 30.9297,59.106 C29.2367,60.82 28.3897,63.183 28.3897,66.195 C28.3897,69.207 29.2367,71.57 30.9297,73.284 C32.6217,74.998 34.9537,75.855 37.9247,75.855 Z M19.9957,77.444 L22.2397,77.444 L22.2397,54.946 L19.9957,54.946 L19.9957,77.444 Z M0.4167,77.444 L0.4167,54.946 L2.6607,54.946 L2.6607,75.324 L16.8067,75.324 L16.8067,77.444 L0.4167,77.444 Z M49.3487,29.095 C49.3487,32.772 48.2937,35.664 46.1857,37.773 C44.0787,39.882 41.1857,40.936 37.5077,40.936 C33.8307,40.936 30.9437,39.882 28.8457,37.773 C26.7467,35.664 25.6997,32.772 25.6997,29.095 C25.6997,25.418 26.7467,22.526 28.8457,20.417 C30.9437,18.308 33.8307,17.255 37.5077,17.255 C41.1857,17.255 44.0787,18.308 46.1857,20.417 C48.2937,22.526 49.3487,25.418 49.3487,29.095 Z M37.5077,38.755 C40.4787,38.755 42.8107,37.898 44.5037,36.184 C46.1967,34.47 47.0427,32.107 47.0427,29.095 C47.0427,26.083 46.1967,23.72 44.5037,22.007 C42.8107,20.293 40.4787,19.436 37.5077,19.436 C34.5367,19.436 32.2057,20.293 30.5127,22.007 C28.8197,23.72 27.9727,26.083 27.9727,29.095 C27.9727,32.107 28.8197,34.47 30.5127,36.184 C32.2057,37.898 34.5367,38.755 37.5077,38.755 Z M0.4167,50.004 L0.4167,27.506 L17.0567,27.506 L17.0567,29.625 L2.6607,29.625 L2.6607,37.384 L15.4977,37.384 L15.4977,39.596 L2.6607,39.596 L2.6607,50.004 L0.4167,50.004 Z M80.8307,22.563 L80.8307,2.122 L72.1377,2.122 L72.1377,0.066 L91.7677,0.066 L91.7677,2.122 L83.0747,2.122 L83.0747,22.563 L80.8307,22.563 Z M61.8737,2.184 L53.8667,2.184 L53.8667,10.785 L62.1547,10.785 C64.2737,10.785 65.8107,10.452 66.7667,9.793 C67.7217,9.128 68.1997,8.022 68.1997,6.469 C68.1997,4.854 67.7067,3.737 66.7197,3.114 C65.7327,2.496 64.1187,2.184 61.8737,2.184 Z M51.6227,22.563 L51.6227,0.066 L62.4047,0.066 C67.7847,0.066 70.4747,2.081 70.4747,6.111 C70.4747,8.978 69.1757,10.846 66.5787,11.719 C67.8057,11.907 68.6667,12.333 69.1657,12.997 C69.5807,13.578 69.8717,14.576 70.0377,15.988 C70.1427,17.298 70.2457,18.606 70.3507,19.914 C70.4747,21.14 70.7347,22.024 71.1287,22.563 L68.5117,22.563 C68.2417,21.753 68.0647,20.683 67.9817,19.353 C67.8357,17.235 67.7527,16.113 67.7327,15.988 C67.5867,14.846 67.1757,14.047 66.5007,13.59 C65.8267,13.132 64.7717,12.903 63.3387,12.903 L53.8667,12.903 L53.8667,22.563 L51.6227,22.563 Z M2.6607,11.158 L9.1727,11.158 C11.4577,11.158 13.0577,10.858 13.9717,10.26 C14.9897,9.595 15.4977,8.406 15.4977,6.687 C15.4977,4.968 14.9897,3.769 13.9717,3.083 C13.0367,2.486 11.4367,2.184 9.1727,2.184 L2.6607,2.184 L2.6607,11.158 Z M0.4167,22.563 L0.4167,0.066 L9.5777,0.066 C15.1037,0.066 17.8667,2.278 17.8667,6.703 C17.8667,11.127 15.1037,13.341 9.5777,13.341 L2.6607,13.341 L2.6607,22.563 L0.4167,22.563 Z" id="letters"></path>
                <polygon id="dash" points="53.719 77.522 83.472 77.522 83.472 75.617 53.719 75.617"></polygon>
            </g>
        </g>
    </g>
</svg>